HIERARCHY
ROOT reference
{
  OFFSET 0 0 0
  CHANNELS 6 Xposition Yposition Zposition Zrotation Xrotation Yrotation
  JOINT Hips
  {
    OFFSET 347.352 87.9396 215.108
    CHANNELS 3 Zrotation Xrotation Yrotation
    JOINT RightUpLeg
    {
      OFFSET -9.26448 -1.5905 0.0349838
      CHANNELS 3 Zrotation Xrotation Yrotation
      JOINT RightLeg
      {
        OFFSET 0.0309074 -41.8937 0.0182011
        CHANNELS 3 Zrotation Xrotation Yrotation
        JOINT RightFoot
        {
          OFFSET 0.355296 -42.3801 0.810868
          CHANNELS 3 Zrotation Xrotation Yrotation
          End Site
          {
            OFFSET 0 -7.69 17.5
          }
        }
      }
    }
    JOINT LeftUpLeg
    {
      OFFSET 9.27369 -1.59127 -0.0547904
      CHANNELS 3 Zrotation Xrotation Yrotation
      JOINT LeftLeg
      {
        OFFSET 0.0553589 -41.8938 0.0587288
        CHANNELS 3 Zrotation Xrotation Yrotation
        JOINT LeftFoot
        {
          OFFSET 0.217916 -41.5497 -0.688939
          CHANNELS 3 Zrotation Xrotation Yrotation
          End Site
          {
            OFFSET 0 -7.69 17.5
          }
        }
      }
    }
    JOINT Spine
    {
      OFFSET 0.0383554 14.2988 0.0402393
      CHANNELS 3 Zrotation Xrotation Yrotation
      JOINT Spine1
      {
        OFFSET 0.0188251 9.70742 0.0136471
        CHANNELS 3 Zrotation Xrotation Yrotation
        JOINT Spine2
        {
          OFFSET 0.0421292 10.115 0.0126686
          CHANNELS 3 Zrotation Xrotation Yrotation
          JOINT Spine3
          {
            OFFSET 0.0499826 9.71803 0.0151296
            CHANNELS 3 Zrotation Xrotation Yrotation
            JOINT Neck
            {
              OFFSET 0.04654 10.3867 0.0448026
              CHANNELS 3 Zrotation Xrotation Yrotation
              JOINT Head
              {
                OFFSET 0.0370611 9.47282 0.0189897
                CHANNELS 3 Zrotation Xrotation Yrotation
                End Site
                {
                  OFFSET 0 15.95 0
                }
              }
            }
            JOINT RightShoulder
            {
              OFFSET -3.19309 6.93146 -0.00624137
              CHANNELS 3 Zrotation Xrotation Yrotation
              JOINT RightArm
              {
                OFFSET -12.7764 0.00688168 -0.00548706
                CHANNELS 3 Zrotation Xrotation Yrotation
                JOINT RightForeArm
                {
                  OFFSET -26.5073 -0.0244096 0.0677859
                  CHANNELS 3 Zrotation Xrotation Yrotation
                  JOINT RightHand
                  {
                    OFFSET -26.0056 -0.000416843 0.0508974
                    CHANNELS 3 Zrotation Xrotation Yrotation
                    JOINT RightHandThumb1
                    {
                      OFFSET -2.48905 0.190105 3.12053
                      CHANNELS 3 Zrotation Xrotation Yrotation
                      JOINT RightHandThumb2
                      {
                        OFFSET -3.68274 0 0
                        CHANNELS 3 Zrotation Xrotation Yrotation
                        JOINT RightHandThumb3
                        {
                          OFFSET -2.55832 0 0
                          CHANNELS 3 Zrotation Xrotation Yrotation
                          End Site
                          {
                            OFFSET -2.194 0 0
                          }
                        }
                      }
                    }
                    JOINT RightInHandIndex
                    {
                      OFFSET -3.22368 0.508421 1.97842
                      CHANNELS 3 Zrotation Xrotation Yrotation
                      JOINT RightHandIndex1
                      {
                        OFFSET -5.21684 -0.091368 0.999158
                        CHANNELS 3 Zrotation Xrotation Yrotation
                        JOINT RightHandIndex2
                        {
                          OFFSET -3.61937 0 0
                          CHANNELS 3 Zrotation Xrotation Yrotation
                          JOINT RightHandIndex3
                          {
                            OFFSET -2.0521 0 0
                            CHANNELS 3 Zrotation Xrotation Yrotation
                            End Site
                            {
                              OFFSET -1.805 0 0
                            }
                          }
                        }
                      }
                    }
                    JOINT RightInHandMiddle
                    {
                      OFFSET -3.38211 0.517263 0.756737
                      CHANNELS 3 Zrotation Xrotation Yrotation
                      JOINT RightHandMiddle1
                      {
                        OFFSET -5.17411 -0.084 0.313895
                        CHANNELS 3 Zrotation Xrotation Yrotation
                        JOINT RightHandMiddle2
                        {
                          OFFSET -3.94947 0 0
                          CHANNELS 3 Zrotation Xrotation Yrotation
                          JOINT RightHandMiddle3
                          {
                            OFFSET -2.47579 0 0
                            CHANNELS 3 Zrotation Xrotation Yrotation
                            End Site
                            {
                              OFFSET -1.975 0 0
                            }
                          }
                        }
                      }
                    }
                    JOINT RightInHandRing
                    {
                      OFFSET -3.36516 0.537895 -0.128947
                      CHANNELS 3 Zrotation Xrotation Yrotation
                      JOINT RightHandRing1
                      {
                        OFFSET -4.63474 -0.022105 -0.478947
                        CHANNELS 3 Zrotation Xrotation Yrotation
                        JOINT RightHandRing2
                        {
                          OFFSET -3.44238 0 0
                          CHANNELS 3 Zrotation Xrotation Yrotation
                          JOINT RightHandRing3
                          {
                            OFFSET -2.3881 0 0
                            CHANNELS 3 Zrotation Xrotation Yrotation
                            End Site
                            {
                              OFFSET -1.857 0 0
                            }
                          }
                        }
                      }
                    }
                    JOINT RightInHandPinky
                    {
                      OFFSET -3.16105 0.469368 -1.20179
                      CHANNELS 3 Zrotation Xrotation Yrotation
                      JOINT RightHandPinky1
                      {
                        OFFSET -4.14105 -0.022105 -1.09053
                        CHANNELS 3 Zrotation Xrotation Yrotation
                        JOINT RightHandPinky2
                        {
                          OFFSET -2.75653 0 0
                          CHANNELS 3 Zrotation Xrotation Yrotation
                          JOINT RightHandPinky3
                          {
                            OFFSET -1.74189 0 0
                            CHANNELS 3 Zrotation Xrotation Yrotation
                            End Site
                            {
                              OFFSET -1.645 0 0
                            }
                          }
                        }
                      }
                    }
                  }
                }
              }
            }
            JOINT LeftShoulder
            {
              OFFSET 3.25131 6.94393 -0.0111894
              CHANNELS 3 Zrotation Xrotation Yrotation
              JOINT LeftArm
              {
                OFFSET 12.7762 -0.0164608 -0.057961
                CHANNELS 3 Zrotation Xrotation Yrotation
                JOINT LeftForeArm
                {
                  OFFSET 26.494 -0.0292415 -0.00751187
                  CHANNELS 3 Zrotation Xrotation Yrotation
                  JOINT LeftHand
                  {
                    OFFSET 26.0005 -0.052199 0.00178648
                    CHANNELS 3 Zrotation Xrotation Yrotation
                    JOINT LeftHandThumb1
                    {
                      OFFSET 2.48905 0.190105 3.12053
                      CHANNELS 3 Zrotation Xrotation Yrotation
                      JOINT LeftHandThumb2
                      {
                        OFFSET 3.68274 0 0
                        CHANNELS 3 Zrotation Xrotation Yrotation
                        JOINT LeftHandThumb3
                        {
                          OFFSET 2.55832 0 0
                          CHANNELS 3 Zrotation Xrotation Yrotation
                          End Site
                          {
                            OFFSET 2.194 0 0
                          }
                        }
                      }
                    }
                    JOINT LeftInHandIndex
                    {
                      OFFSET 3.22368 0.508421 1.97842
                      CHANNELS 3 Zrotation Xrotation Yrotation
                      JOINT LeftHandIndex1
                      {
                        OFFSET 5.21684 -0.091368 0.999158
                        CHANNELS 3 Zrotation Xrotation Yrotation
                        JOINT LeftHandIndex2
                        {
                          OFFSET 3.61937 0 0
                          CHANNELS 3 Zrotation Xrotation Yrotation
                          JOINT LeftHandIndex3
                          {
                            OFFSET 2.0521 0 0
                            CHANNELS 3 Zrotation Xrotation Yrotation
                            End Site
                            {
                              OFFSET 1.805 0 0
                            }
                          }
                        }
                      }
                    }
                    JOINT LeftInHandMiddle
                    {
                      OFFSET 3.38211 0.517263 0.756737
                      CHANNELS 3 Zrotation Xrotation Yrotation
                      JOINT LeftHandMiddle1
                      {
                        OFFSET 5.17411 -0.084 0.313895
                        CHANNELS 3 Zrotation Xrotation Yrotation
                        JOINT LeftHandMiddle2
                        {
                          OFFSET 3.94947 0 0
                          CHANNELS 3 Zrotation Xrotation Yrotation
                          JOINT LeftHandMiddle3
                          {
                            OFFSET 2.47579 0 0
                            CHANNELS 3 Zrotation Xrotation Yrotation
                            End Site
                            {
                              OFFSET 1.975 0 0
                            }
                          }
                        }
                      }
                    }
                    JOINT LeftInHandRing
                    {
                      OFFSET 3.36516 0.537895 -0.128947
                      CHANNELS 3 Zrotation Xrotation Yrotation
                      JOINT LeftHandRing1
                      {
                        OFFSET 4.63474 -0.022105 -0.478947
                        CHANNELS 3 Zrotation Xrotation Yrotation
                        JOINT LeftHandRing2
                        {
                          OFFSET 3.44238 0 0
                          CHANNELS 3 Zrotation Xrotation Yrotation
                          JOINT LeftHandRing3
                          {
                            OFFSET 2.3881 0 0
                            CHANNELS 3 Zrotation Xrotation Yrotation
                            End Site
                            {
                              OFFSET 1.857 0 0
                            }
                          }
                        }
                      }
                    }
                    JOINT LeftInHandPinky
                    {
                      OFFSET 3.16105 0.469368 -1.20179
                      CHANNELS 3 Zrotation Xrotation Yrotation
                      JOINT LeftHandPinky1
                      {
                        OFFSET 4.14105 -0.022105 -1.09053
                        CHANNELS 3 Zrotation Xrotation Yrotation
                        JOINT LeftHandPinky2
                        {
                          OFFSET 2.75653 0 0
                          CHANNELS 3 Zrotation Xrotation Yrotation
                          JOINT LeftHandPinky3
                          {
                            OFFSET 1.74189 0 0
                            CHANNELS 3 Zrotation Xrotation Yrotation
                            End Site
                            {
                              OFFSET 1.645 0 0
                            }
                          }
                        }
                      }
                    }
                  }
                }
              }
            }
          }
        }
      }
    }
  }
}
MOTION
Frames: 2
Frame Time: 0.00833333
7.500000000000000000e+02 0.000000000000000000e+00 0.000000000000000000e+00 0.000000000000000000e+00 0.000000000000000000e+00 0.000000000000000000e+00 -1.264300899130918143e+00 -1.800275069685083329e+00 -2.058331661515627076e+00 5.251054887169051000e+00 1.004524503439915506e+01 6.103591914153616571e+00 -1.558596606924795624e+00 -2.096872984517137439e+00 1.937047261137659238e+00 -2.190633282516935676e+00 -9.075515636034847677e-01 -1.439603845927461823e+00 -5.657176629345473273e+00 6.463793227707694378e+00 -2.947913867544195377e+00 -6.016567430140890016e-02 -2.268562941613025685e-01 -8.062188148077249483e-01 6.435410735085040912e+00 1.577465165404375869e+00 4.404963433690284980e+00 4.632358798694309332e-01 -2.550070603940156833e+00 -2.056388337395812727e+00 1.822273397950378293e-01 -8.169989832928410411e-01 -3.398495005661072432e-01 2.804478662192674832e-01 -1.438835717116959900e+00 -6.064161808806347587e-01 1.623836719390461536e-01 1.253257205292353793e-01 1.357921169528086003e-01 2.948705231445323260e-01 -7.110106692673757722e-01 7.578028599323024750e+00 2.453079071148595247e+00 3.264609054621327111e+00 -1.934178683130407528e+00 -1.048481579311916434e+00 1.648348929094777926e+00 -1.668697611939946812e+00 -1.556411092947387331e+01 -8.489638833134947049e+00 -2.689833783726350180e+00 -1.763866354443189621e+01 7.618992072461229448e+00 4.896487717020439945e+00 8.134513063574360103e-01 6.248568640417819786e+00 9.545481425017385835e-01 0.000000000000000000e+00 0.000000000000000000e+00 0.000000000000000000e+00 -7.185017497146398035e-15 2.150685227788121110e-15 0.000000000000000000e+00 -5.110060560488212554e-15 -6.040181626416192058e-16 0.000000000000000000e+00 -3.600557457896512593e-15 -2.563811565653701675e-15 -1.552182729125910771e-15 0.000000000000000000e+00 0.000000000000000000e+00 0.000000000000000000e+00 0.000000000000000000e+00 -2.692982504007013813e-16 -3.675357353754903276e-15 0.000000000000000000e+00 -1.913819688736417257e-15 -4.609476296129193236e-16 -3.600557457896512593e-15 -2.563811565653701675e-15 -1.552182729125910771e-15 0.000000000000000000e+00 2.414902208548119895e-15 2.708593533484460796e-16 0.000000000000000000e+00 2.779707159134052079e-16 1.358428254872321665e-15 0.000000000000000000e+00 -9.201023052990430498e-16 8.004884243678196942e-16 -3.600557457896512593e-15 -2.563811565653701675e-15 -1.552182729125910771e-15 0.000000000000000000e+00 0.000000000000000000e+00 0.000000000000000000e+00 0.000000000000000000e+00 -2.747858575866180225e-15 8.026417090343733621e-16 0.000000000000000000e+00 1.445279306454365082e-15 2.212166849400150944e-15 -3.600557457896512593e-15 -2.563811565653701675e-15 -1.552182729125910771e-15 0.000000000000000000e+00 0.000000000000000000e+00 0.000000000000000000e+00 0.000000000000000000e+00 4.472401463768843513e-16 3.765892950028689693e-15 0.000000000000000000e+00 -1.379713415109800234e-15 2.355269620267271774e-15 -3.565008423638558188e+00 -1.086425119988457366e+00 -2.439508708062813724e+00 2.658158562362882726e+00 -6.523494029976980357e+00 -2.464253530885293308e+00 7.260302285705610981e-01 -4.112927630185669869e+00 -1.993730250646215296e+01 -1.025630019039951213e+00 3.780430768950012732e-01 -5.861415859640653814e+00 0.000000000000000000e+00 0.000000000000000000e+00 0.000000000000000000e+00 1.463851104011688740e-15 2.890298668780800178e-16 0.000000000000000000e+00 1.325272622896392210e-15 -8.428119090511381191e-16 0.000000000000000000e+00 -8.311204375080389896e-16 -1.156504504140788810e-15 1.479892431783337054e-16 0.000000000000000000e+00 0.000000000000000000e+00 0.000000000000000000e+00 0.000000000000000000e+00 1.581558218752479322e-15 7.081096157821309485e-15 0.000000000000000000e+00 -2.052850115772878778e-15 -3.596348142170167585e-16 -8.311204375080389896e-16 -1.156504504140788810e-15 1.479892431783337054e-16 0.000000000000000000e+00 -1.334208707533337879e-16 7.742671408254470702e-15 0.000000000000000000e+00 3.762228593115110500e-16 6.275134164736818557e-15 0.000000000000000000e+00 -1.214122879506800976e-15 1.520541187029987636e-15 -8.311204375080389896e-16 -1.156504504140788810e-15 1.479892431783337054e-16 0.000000000000000000e+00 0.000000000000000000e+00 0.000000000000000000e+00 0.000000000000000000e+00 -1.338382704931121964e-15 5.744277995244422139e-15 0.000000000000000000e+00 -1.252164721855991663e-15 2.002635484194180322e-15 -8.311204375080389896e-16 -1.156504504140788810e-15 1.479892431783337054e-16 0.000000000000000000e+00 0.000000000000000000e+00 0.000000000000000000e+00 0.000000000000000000e+00 -1.535709159426897694e-15 7.884539684994756620e-15 0.000000000000000000e+00 1.337225205643850633e-15 1.867141324720014689e-15
7.500000000000000000e+02 0.000000000000000000e+00 0.000000000000000000e+00 0.000000000000000000e+00 0.000000000000000000e+00 0.000000000000000000e+00 -1.188883630564663063e+00 -1.761767947129163625e+00 -2.538483251221570924e+00 5.457492070982023158e+00 9.932293686979209113e+00 6.189963478032937338e+00 -1.555381518430180243e+00 -2.048818801983780524e+00 1.963631524730345967e+00 -2.180042885975589595e+00 -8.739320422898463336e-01 -1.194812879413806428e+00 -5.413633449715600676e+00 6.524588833514055608e+00 -2.788438533847423351e+00 -1.486696710119218834e-01 -2.552838355024839023e-02 -7.861597524002521542e-01 6.792464586701020046e+00 1.635622896986315133e+00 4.847116817381332154e+00 4.644007478338127437e-01 -2.638341906697210693e+00 -2.245963175015326385e+00 1.818167472207185831e-01 -8.445787601385232879e-01 -3.871072052556981946e-01 2.800360009399385786e-01 -1.486824331710724145e+00 -6.780275874127896785e-01 1.609969302180464246e-01 1.352131799058894079e-01 1.553111771708990951e-01 2.993186326205611314e-01 -6.955215016078319934e-01 7.912987743127343876e+00 2.411325251842820094e+00 3.352323948329762437e+00 -1.748739437079869230e+00 -9.390721500967583735e-01 1.759333364681216150e+00 -1.758592837423293087e+00 -1.558605594263316441e+01 -8.524804695508391816e+00 -3.048718773909657287e+00 -1.751758787512672910e+01 7.512945558979428284e+00 5.416969627533643639e+00 8.081935207834191059e-01 6.421881862013981923e+00 1.120653005618068798e+00 0.000000000000000000e+00 0.000000000000000000e+00 0.000000000000000000e+00 -7.271555042946529071e-15 2.206370230050949720e-15 0.000000000000000000e+00 -5.307365019523196895e-15 -7.315803964952680723e-16 0.000000000000000000e+00 -3.665606702928593081e-15 -2.530552100357601778e-15 -1.542757126806610366e-15 0.000000000000000000e+00 0.000000000000000000e+00 0.000000000000000000e+00 0.000000000000000000e+00 -2.467652190341352118e-16 -3.869400517678398950e-15 0.000000000000000000e+00 -1.909430159204514160e-15 -4.246776225090298584e-16 -3.665606702928593081e-15 -2.530552100357601778e-15 -1.542757126806610366e-15 0.000000000000000000e+00 2.451402889367611458e-15 2.622631334077784068e-16 0.000000000000000000e+00 2.157105313853167985e-16 1.427551100151781072e-15 0.000000000000000000e+00 -9.473719339059681513e-16 9.180946874804879586e-16 -3.665606702928593081e-15 -2.530552100357601778e-15 -1.542757126806610366e-15 0.000000000000000000e+00 0.000000000000000000e+00 0.000000000000000000e+00 0.000000000000000000e+00 -2.789988817735897827e-15 8.047435158289775345e-16 0.000000000000000000e+00 1.449571397475183767e-15 2.315714383479669313e-15 -3.665606702928593081e-15 -2.530552100357601778e-15 -1.542757126806610366e-15 0.000000000000000000e+00 0.000000000000000000e+00 0.000000000000000000e+00 0.000000000000000000e+00 4.827080530333030687e-16 3.829466304513753393e-15 0.000000000000000000e+00 -1.331367394658102017e-15 2.258962277766572975e-15 -3.514085960671147202e+00 -9.994342061609438055e-01 -2.466564712637428158e+00 2.867970721376710941e+00 -6.456802128397727714e+00 -2.661225182871581829e+00 1.135664360341725798e+00 -3.911656152812412302e+00 -1.954229963057262509e+01 -1.021022847136207723e+00 4.043523951462302257e-01 -5.833995503037406216e+00 0.000000000000000000e+00 0.000000000000000000e+00 0.000000000000000000e+00 1.427833965188673684e-15 3.188846141294098747e-16 0.000000000000000000e+00 1.333456489203842741e-15 -7.070127069870852331e-16 0.000000000000000000e+00 -8.584267010566710281e-16 -1.069262203022222509e-15 5.050873841130498537e-17 0.000000000000000000e+00 0.000000000000000000e+00 0.000000000000000000e+00 0.000000000000000000e+00 1.618338482007318954e-15 7.380436394071433737e-15 0.000000000000000000e+00 -2.213964709933841911e-15 -1.693789320631435460e-16 -8.584267010566710281e-16 -1.069262203022222509e-15 5.050873841130498537e-17 0.000000000000000000e+00 -1.392253468437323847e-16 8.198910756945971946e-15 0.000000000000000000e+00 2.892753848563195190e-16 6.562997119068654324e-15 0.000000000000000000e+00 -1.351570243832157640e-15 1.765824613687351353e-15 -8.584267010566710281e-16 -1.069262203022222509e-15 5.050873841130498537e-17 0.000000000000000000e+00 0.000000000000000000e+00 0.000000000000000000e+00 0.000000000000000000e+00 -1.351000500024821283e-15 6.022355605420454488e-15 0.000000000000000000e+00 -1.330767036738798401e-15 2.066233170320285685e-15 -8.584267010566710281e-16 -1.069262203022222509e-15 5.050873841130498537e-17 0.000000000000000000e+00 0.000000000000000000e+00 0.000000000000000000e+00 0.000000000000000000e+00 -1.661978865576227636e-15 8.199877375935918694e-15 0.000000000000000000e+00 1.288276779452644216e-15 2.013052947161195783e-15
